<?xml version="1.0" encoding="UTF-8"?>
<svg width="42px" height="57px" viewBox="0 0 42 57" version="1.1" xmlns="http://www.w3.org/2000/svg" xmlns:xlink="http://www.w3.org/1999/xlink">
    <!-- Generator: Sketch Beta 52.5 (67469) - http://www.bohemiancoding.com/sketch -->
    <title>icon-control</title>
    <desc>Created with Sketch Beta.</desc>
    <g id="Page-1" stroke="none" stroke-width="1" fill="none" fill-rule="evenodd" stroke-linejoin="round">
        <g id="after" transform="translate(-258.000000, -1313.000000)" stroke="#FFFFFF" stroke-width="2">
            <g id="icon-control" transform="translate(259.000000, 1314.000000)">
                <path d="M3.00027388,30.1018386 C-2.17160123,21.8519958 -0.518384687,11.0734133 6.89019652,4.74045927 C14.2987777,-1.5924948 25.2386321,-1.57863739 32.6310393,4.77306494 C40.0234466,11.1247673 41.6491707,21.9075031 36.4562739,30.144217" id="Shape" stroke-linecap="round"></path>
                <path d="M15.1848384,18.1621622 C15.1848384,16.4903813 16.5445662,15.1351351 18.2218755,15.1351351 C19.8991847,15.1351351 21.2589125,16.4903813 21.2589125,18.1621622 L21.2589125,32.5526486 L33.1610606,36.0942703 C35.1483053,36.6641866 36.3409948,38.6840121 35.8761718,40.6923243 C35.8761718,40.6923243 33.6105421,52.8004324 33.2946903,54.544 L14.6989125,54.544 L5.40557917,40.6499459 C1.71557917,35.0287568 10.9815792,33.0823784 15.1757273,42.4358919 L15.1848384,18.1621622 Z" id="Shape"></path>
            </g>
        </g>
    </g>
</svg>