<?xml version="1.0" encoding="UTF-8"?>
<svg width="48px" height="41px" viewBox="0 0 48 41" version="1.1" xmlns="http://www.w3.org/2000/svg" xmlns:xlink="http://www.w3.org/1999/xlink">
    <!-- Generator: Sketch Beta 52.5 (67469) - http://www.bohemiancoding.com/sketch -->
    <title>icon-plugin</title>
    <desc>Created with Sketch Beta.</desc>
    <g id="Page-1" stroke="none" stroke-width="1" fill="none" fill-rule="evenodd" stroke-linecap="round" stroke-linejoin="round">
        <g id="after" transform="translate(-735.000000, -1450.000000)" stroke="#FFFFFF" stroke-width="2">
            <g id="icon-plugin" transform="translate(735.000000, 1451.000000)">
                <ellipse id="Oval" cx="24" cy="15" rx="6" ry="3"></ellipse>
                <ellipse id="Oval" cx="24" cy="3" rx="6" ry="3"></ellipse>
                <ellipse id="Oval" cx="38" cy="9" rx="6" ry="3"></ellipse>
                <ellipse id="Oval" cx="11" cy="9" rx="6" ry="3"></ellipse>
                <path d="M19.474,4.968 L15.164,6.842" id="Shape"></path>
                <path d="M33.388,7.082 L28.522,4.966" id="Shape"></path>
                <path d="M6.148,10.762 L2.2,12.478 C1.47082382,12.7962385 0.999614287,13.5164037 1,14.312 L1,27.712 C1.00021707,28.4959296 1.45840694,29.2074532 2.172,29.532 L22.2,38.64 C22.706476,38.8709474 23.2862876,38.8803693 23.8,38.666 L45.766,29.512 C46.5109406,29.2012437 46.9960673,28.4731592 46.996,27.666 L46.996,14.312 C46.9963857,13.5164037 46.5251762,12.7962385 45.796,12.478 L42.4,11" id="Shape"></path>
                <path d="M23,23 L23,38.816" id="Shape"></path>
                <path d="M46.63,13.154 L23,23" id="Shape"></path>
                <path d="M23,23 L1.362,13.164" id="Shape"></path>
            </g>
        </g>
    </g>
</svg>