<?xml version="1.0" encoding="UTF-8"?>
<svg width="140px" height="52px" viewBox="0 0 140 52" version="1.1" xmlns="http://www.w3.org/2000/svg" xmlns:xlink="http://www.w3.org/1999/xlink">
    <!-- Generator: Sketch Beta 52.5 (67469) - http://www.bohemiancoding.com/sketch -->
    <title>tuple-logo</title>
    <desc>Created with Sketch Beta.</desc>
    <g id="Page-1" stroke="none" stroke-width="1" fill="none" fill-rule="evenodd">
        <g id="after" transform="translate(-250.000000, -68.000000)">
            <g id="tuple-logo" transform="translate(250.000000, 68.000000)">
                <path d="M57.2,36 L57.2,21.934 L52.52,21.934 L52.52,17.41 L67.834,17.41 L67.834,21.934 L63.128,21.934 L63.128,36 L57.2,36 Z M79.3086666,36.338 C73.8746666,36.338 70.8066666,33.634 70.8066666,28.33 L70.8066666,17.41 L76.6826666,17.41 L76.6826666,28.096 C76.6826666,30.514 77.2026666,31.71 79.3086666,31.71 C81.3886666,31.71 81.9086666,30.514 81.9086666,28.07 L81.9086666,17.41 L87.8366666,17.41 L87.8366666,28.278 C87.8366666,33.868 84.5086666,36.338 79.3086666,36.338 Z M91.9533332,36 L91.9533332,17.41 L99.3633332,17.41 C104.719333,17.41 107.007333,19.802 107.007333,23.78 L107.007333,23.884 C107.007333,27.758 104.433333,29.942 99.6233332,29.942 L97.8293332,29.942 L97.8293332,36 L91.9533332,36 Z M97.8293332,25.99 L99.0513332,25.99 C100.611333,25.99 101.417333,25.288 101.417333,23.91 L101.417333,23.806 C101.417333,22.376 100.611333,21.804 99.0773332,21.804 L97.8293332,21.804 L97.8293332,25.99 Z M110.084,36 L110.084,17.41 L115.986,17.41 L115.986,31.45 L122.746,31.45 L122.746,36 L110.084,36 Z M126.082666,36 L126.082666,17.41 L139.290666,17.41 L139.290666,21.934 L131.958666,21.934 L131.958666,24.56 L137.782666,24.56 L137.782666,28.694 L131.958666,28.694 L131.958666,31.476 L139.706666,31.476 L139.706666,36 L126.082666,36 Z" id="TUPLE" fill="#1F2E41"></path>
                <polygon id="Rectangle-7-Copy" fill="#BFC6F1" fill-rule="nonzero" points="8 18 32 10 32 52 8 44"></polygon>
                <polygon id="Rectangle-7" fill="#4652AF" fill-rule="nonzero" points="0 8 24 0 24 42 0 34"></polygon>
            </g>
        </g>
    </g>
</svg>